<svg xmlns="http://www.w3.org/2000/svg" viewBox="0 0 960 719" role="img" aria-labelledby="ch14-story-title ch14-story-desc">
  <title id="ch14-story-title">从一个叫 block 的变量引出的六个月追查，到把命名当作投资</title>
  <desc id="ch14-story-desc">本章回顾。从一个叫 block 的变量引出的六个月追查，到把命名当作投资。起点：Sprite 文件系统偶尔把文件的一个数据块清零，追了六个月。变量 block 有时指磁盘上的物理块号，有时指文件中的逻辑块号，某处把两者用混了。几个人读过这段代码都没发现：看到 block 被当作物理块号，就本能地以为它确实是。；判断：多数人拿最先想到、大致相符的名称就用，作者认为这不够。“块”看起来并不糟，却让人花了大量时间追一个微妙的缺陷。好名称要让读者在没看到声明和用法时，就能准确猜出它指什么：突出最重要的特征，省去次要细节。；做法：精确、一致、没有多余的词。getCount 太笼统，numActiveIndexlets 让人不看文档就能猜到返回什么；同一用途始终用同一个名称，i 总用于外层循环；名称里的每个词都要提供信息。短循环用 i、j 是合理的例外。；分歧：Go 风格偏爱单字母名，作者认为可读性应由读者判断。Go 演讲认为长名称模糊了代码的作用。作者读单字母版本时得通读代码才知道 n 是什么，count 就不用；若系统里 n 始终表示计数，短名也说得通。读者抱怨含糊，就该改长。。这一章最想强调的：不要满足于“大致相符”的名称，多花一点时间选出准确、明确而直观的名称 这是一项投资：一开始会觉得费时，随着经验积累，几乎不用多花时间就能选出好名称</desc>
  <rect width="960" height="719" fill="var(--diagram-bg,#e7eae6)"/>
  <g font-family="system-ui,-apple-system,'PingFang SC','Microsoft YaHei',sans-serif" fill="var(--diagram-ink,#303630)">
    <text x="32.0" y="30.0" font-size="13" font-weight="600" fill="var(--diagram-primary,#0b6f5d)">本章回顾</text>
    <path d="M74 144 V 469" fill="none" stroke="var(--diagram-line,#aebbad)" stroke-width="2"/>
    <text x="32.0" y="62.0" font-size="26" font-weight="600">从一个叫 block 的变量引出的六个月追查，到把命名当作投资</text>
    <circle cx="74.0" cy="122.0" r="22" fill="var(--diagram-danger-soft,#ead9dc)" stroke="var(--diagram-danger,#a03946)" stroke-width="2"/><g transform="translate(63.0,111.0) scale(0.917)" fill="none" stroke="var(--diagram-danger,#a03946)" stroke-width="2" stroke-linecap="round" stroke-linejoin="round"><path d="m8 2 1.88 1.88"/><path d="M14.12 3.88 16 2"/><path d="M9 7.13v-1a3.003 3.003 0 1 1 6 0v1"/><path d="M12 20c-3.3 0-6-2.7-6-6v-3a4 4 0 0 1 4-4h4a4 4 0 0 1 4 4v3c0 3.3-2.7 6-6 6"/><path d="M12 20v-9"/><path d="M6.53 9C4.6 8.8 3 7.1 3 5"/><path d="M6 13H2"/><path d="M3 21c0-2.1 1.7-3.9 3.8-4"/><path d="M20.97 5c0 2.1-1.6 3.8-3.5 4"/><path d="M22 13h-4"/><path d="M17.2 17c2.1.1 3.8 1.9 3.8 4"/></g>
    <text x="118.0" y="110.0" font-size="12" font-weight="600" fill="var(--diagram-danger,#a03946)">起点</text>
    <text x="118.0" y="134.0" font-size="19" font-weight="600">Sprite 文件系统偶尔把文件的一个数据块清零，追了六个月</text>
    <text x="118.0" y="160.0" font-size="15">变量 block 有时指磁盘上的物理块号，有时指文件中的逻辑块号，某处把两者用混了。几个人读过这段代码都没发现：看</text>
    <text x="118.0" y="183.0" font-size="15">到 block 被当作物理块号，就本能地以为它确实是。</text>
    <circle cx="74.0" cy="245.0" r="22" fill="var(--diagram-warm-soft,#eae2cf)" stroke="var(--diagram-warm,#80531b)" stroke-width="2"/><g transform="translate(63.0,234.0) scale(0.917)" fill="none" stroke="var(--diagram-warm,#80531b)" stroke-width="2" stroke-linecap="round" stroke-linejoin="round"><path d="M2.062 12.348a1 1 0 0 1 0-.696 10.75 10.75 0 0 1 19.876 0 1 1 0 0 1 0 .696 10.75 10.75 0 0 1-19.876 0"/><circle cx="12" cy="12" r="3"/></g>
    <text x="118.0" y="233.0" font-size="12" font-weight="600" fill="var(--diagram-warm,#80531b)">判断</text>
    <text x="118.0" y="257.0" font-size="19" font-weight="600">多数人拿最先想到、大致相符的名称就用，作者认为这不够</text>
    <text x="118.0" y="283.0" font-size="15">“块”看起来并不糟，却让人花了大量时间追一个微妙的缺陷。好名称要让读者在没看到声明和用法时，就能准确猜出它指</text>
    <text x="118.0" y="306.0" font-size="15">什么：突出最重要的特征，省去次要细节。</text>
    <circle cx="74.0" cy="368.0" r="22" fill="var(--diagram-primary-soft,#d6e5dc)" stroke="var(--diagram-primary,#0b6f5d)" stroke-width="2"/><g transform="translate(63.0,357.0) scale(0.917)" fill="none" stroke="var(--diagram-primary,#0b6f5d)" stroke-width="2" stroke-linecap="round" stroke-linejoin="round"><path d="m3 17 2 2 4-4"/><path d="m3 7 2 2 4-4"/><path d="M13 6h8"/><path d="M13 12h8"/><path d="M13 18h8"/></g>
    <text x="118.0" y="356.0" font-size="12" font-weight="600" fill="var(--diagram-primary,#0b6f5d)">做法</text>
    <text x="118.0" y="380.0" font-size="19" font-weight="600">精确、一致、没有多余的词</text>
    <text x="118.0" y="406.0" font-size="15">getCount 太笼统，numActiveIndexlets 让人不看文档就能猜到返回什么；同一用途始终用同一个名称，i 总用于外层循</text>
    <text x="118.0" y="429.0" font-size="15">环；名称里的每个词都要提供信息。短循环用 i、j 是合理的例外。</text>
    <circle cx="74.0" cy="491.0" r="22" fill="var(--diagram-primary-soft,#d6e5dc)" stroke="var(--diagram-primary,#0b6f5d)" stroke-width="2"/><g transform="translate(63.0,480.0) scale(0.917)" fill="none" stroke="var(--diagram-primary,#0b6f5d)" stroke-width="2" stroke-linecap="round" stroke-linejoin="round"><path d="m16 16 3-8 3 8c-.87.65-1.92 1-3 1s-2.13-.35-3-1Z"/><path d="m2 16 3-8 3 8c-.87.65-1.92 1-3 1s-2.13-.35-3-1Z"/><path d="M7 21h10"/><path d="M12 3v18"/><path d="M3 7h2c2 0 5-1 7-2 2 1 5 2 7 2h2"/></g>
    <text x="118.0" y="479.0" font-size="12" font-weight="600" fill="var(--diagram-primary,#0b6f5d)">分歧</text>
    <text x="118.0" y="503.0" font-size="19" font-weight="600">Go 风格偏爱单字母名，作者认为可读性应由读者判断</text>
    <text x="118.0" y="529.0" font-size="15">Go 演讲认为长名称模糊了代码的作用。作者读单字母版本时得通读代码才知道 n 是什么，count 就不用；若系统里 n 始终</text>
    <text x="118.0" y="552.0" font-size="15">表示计数，短名也说得通。读者抱怨含糊，就该改长。</text>
    <rect x="32.0" y="590.0" width="896.0" height="101.0" rx="12" fill="var(--diagram-primary-soft,#d6e5dc)"/>
    <g transform="translate(50.0,610.0) scale(1.000)" fill="none" stroke="var(--diagram-primary,#0b6f5d)" stroke-width="2" stroke-linecap="round" stroke-linejoin="round"><path d="M4 15s1-1 4-1 5 2 8 2 4-1 4-1V3s-1 1-4 1-5-2-8-2-4 1-4 1z"/><line x1="4" x2="4" y1="22" y2="15"/></g>
    <text x="92.0" y="618.0" font-size="13" font-weight="600" fill="var(--diagram-primary,#0b6f5d)">这一章最想强调的</text>
    <text x="92.0" y="644.0" font-size="20" font-weight="600">不要满足于“大致相符”的名称，多花一点时间选出准确、明确而直观的名称</text>
    <text x="92.0" y="670.0" font-size="15" fill="var(--diagram-muted,#5c645d)">这是一项投资：一开始会觉得费时，随着经验积累，几乎不用多花时间就能选出好名称</text>
  </g>
</svg>
